<?xml version="1.0" standalone="no"?>
<!DOCTYPE svg PUBLIC "-//W3C//DTD SVG 20010904//EN"
 "http://www.w3.org/TR/2001/REC-SVG-20010904/DTD/svg10.dtd">
<svg version="1.0" xmlns="http://www.w3.org/2000/svg"
 width="500.000000pt" height="500.000000pt" viewBox="0 0 500.000000 500.000000"
 preserveAspectRatio="xMidYMid meet">
<metadata>
Created by potrace 1.11, written by Peter Selinger 2001-2013
</metadata>
<g transform="translate(0.000000,500.000000) scale(0.100000,-0.100000)"
fill="#000000" stroke="none">
<path d="M0 4323 c0 -9 4 -30 9 -47 6 -17 20 -71 32 -121 40 -165 163 -411
287 -575 205 -272 532 -537 843 -687 65 -31 73 -50 31 -76 -59 -34 -242 -250
-242 -285 0 -11 117 -56 190 -73 30 -7 100 -13 155 -13 55 -1 103 -5 106 -9 3
-4 7 -101 7 -215 2 -213 16 -357 36 -369 6 -4 32 -15 58 -24 97 -35 191 -119
238 -212 34 -68 38 -113 14 -159 -21 -41 -14 -120 16 -174 12 -21 36 -64 52
-94 42 -74 104 -155 136 -176 14 -9 51 -20 81 -23 l54 -6 40 -79 c52 -104 133
-187 221 -226 54 -25 79 -30 141 -30 41 0 83 4 93 9 9 5 39 19 66 32 82 39
175 148 217 254 16 39 18 40 74 46 32 4 69 15 83 26 64 47 202 271 217 354 5
27 1 50 -16 88 -22 51 -22 54 -6 105 37 115 133 213 259 263 37 14 70 33 72
42 11 39 19 151 25 355 l6 219 111 2 c117 3 230 27 305 66 l41 20 -18 27 c-54
86 -222 272 -244 272 -6 0 -10 8 -10 18 0 11 25 30 76 56 111 57 312 185 412
263 241 188 417 394 574 672 74 131 186 491 152 491 -4 0 -41 -30 -83 -68
-290 -257 -710 -541 -916 -620 -16 -6 -55 -21 -85 -32 -53 -20 -89 -31 -217
-65 -137 -36 -392 -62 -453 -45 -19 5 -78 22 -130 38 -223 69 -477 107 -662
99 -184 -8 -337 -37 -617 -117 -103 -29 -107 -30 -225 -19 -117 10 -350 50
-391 68 -11 5 -51 18 -90 31 -171 54 -472 226 -721 411 -136 101 -384 307
-384 319 0 6 -4 10 -10 10 -5 0 -10 -8 -10 -17z m222 -288 c31 -34 34 -45 13
-45 -8 0 -15 -7 -15 -15 0 -8 -4 -15 -10 -15 -14 0 -13 27 1 36 7 4 2 14 -14
28 -14 11 -29 32 -33 46 -6 23 -6 24 12 10 10 -8 30 -28 46 -45z m4621 22 c-6
-12 -14 -31 -18 -42 -7 -18 -8 -17 -17 9 -9 25 -8 31 13 47 29 21 36 17 22
-14z m-87 -65 c6 -4 13 -27 16 -52 3 -25 4 -39 1 -32 -3 6 -9 12 -15 12 -6 0
-21 10 -33 22 -22 21 -23 24 -7 40 20 19 23 20 38 10z m-4438 -32 c17 -16 34
-30 38 -30 19 0 102 -63 107 -80 3 -13 11 -18 21 -14 9 3 16 1 16 -4 0 -6 28
-24 63 -40 34 -17 71 -38 82 -46 18 -15 17 -15 -20 -1 -22 9 -50 23 -62 31
-12 7 -28 14 -34 14 -7 0 -40 13 -73 29 -34 16 -70 31 -80 35 -10 4 -16 9 -13
12 3 4 20 2 36 -4 17 -6 31 -8 31 -4 -1 12 -43 38 -73 46 -33 8 -87 53 -87 73
0 21 16 15 48 -17z m4482 -9 c0 -6 -4 -13 -10 -16 -5 -3 -10 1 -10 9 0 9 5 16
10 16 6 0 10 -4 10 -9z m-4554 -15 c8 -8 14 -22 14 -30 0 -11 14 -18 42 -23
38 -6 40 -7 20 -16 -29 -13 -30 -47 -1 -47 18 0 20 -4 14 -27 -7 -29 -13 -39
-18 -32 -34 46 -97 165 -97 184 0 9 11 5 26 -9z m4442 3 c-10 -5 -18 -17 -18
-24 0 -8 -3 -15 -8 -15 -4 0 -12 -10 -17 -22 -12 -27 -65 -39 -65 -14 0 19 20
31 45 28 15 -2 16 0 7 6 -11 7 -8 14 14 31 14 11 34 21 43 21 14 -1 14 -2 -1
-11z m42 -29 c0 -5 -2 -10 -4 -10 -3 0 -8 5 -11 10 -3 6 -1 10 4 10 6 0 11 -4
11 -10z m21 -53 c-12 -31 -31 -44 -31 -21 0 17 30 58 37 50 2 -2 -1 -15 -6
-29z m-173 -15 c3 -9 -2 -13 -14 -10 -9 1 -19 9 -22 16 -3 9 2 13 14 10 9 -1
19 -9 22 -16z m-48 -6 c0 -2 3 -12 6 -21 5 -13 2 -15 -22 -10 -22 5 -25 4 -14
-4 13 -9 13 -11 0 -11 -8 0 -44 -14 -78 -31 -35 -17 -65 -29 -67 -27 -2 2 19
19 48 37 29 19 63 42 77 52 23 17 50 25 50 15z m172 -31 c-4 -37 -32 -51 -32
-16 0 29 11 51 24 51 8 0 11 -12 8 -35z m-4312 -110 c0 -16 6 -25 15 -25 8 0
15 -7 15 -15 0 -8 4 -15 9 -15 5 0 13 -10 17 -22 3 -12 10 -26 15 -32 28 -34
59 -90 56 -100 -3 -6 -9 0 -15 14 -5 14 -19 34 -31 44 -11 11 -21 25 -21 32 0
7 -9 18 -20 24 -11 6 -20 17 -20 25 0 8 -4 15 -10 15 -5 0 -10 6 -10 14 0 8
-6 16 -12 19 -7 3 -22 20 -32 38 -15 25 -16 31 -4 27 11 -5 14 0 11 20 -5 26
-4 26 16 -6 12 -18 21 -44 21 -57z m4270 38 c0 -30 -3 -35 -11 -23 -9 12 -10
11 -6 -7 6 -26 -1 -33 -25 -24 -15 5 -14 11 9 49 14 23 27 42 29 42 2 0 4 -17
4 -37z m-4162 -7 c80 -40 356 -135 516 -176 185 -48 420 -93 557 -106 36 -3
72 -10 80 -14 10 -7 -12 -59 -103 -242 -115 -231 -116 -233 -162 -255 -26 -13
-56 -23 -68 -23 -29 0 -191 88 -290 157 -99 69 -288 249 -375 357 -83 104
-213 299 -213 320 0 10 9 7 58 -18z m4046 -33 c-136 -238 -379 -504 -594 -650
-73 -50 -235 -133 -258 -133 -12 0 -41 10 -65 21 -42 21 -47 28 -162 256 -93
182 -116 236 -106 243 8 4 44 11 80 14 36 4 89 11 116 15 28 5 84 15 125 21
203 33 521 120 695 190 11 4 47 18 80 31 33 12 64 26 70 31 5 4 17 8 27 8 17
0 16 -5 -8 -47z m66 -43 c0 -14 -51 -90 -60 -90 -4 0 -10 -9 -13 -20 -3 -11
-10 -20 -16 -20 -17 0 -13 15 9 35 11 10 20 22 20 26 0 4 9 24 21 43 20 35 39
47 39 26z m-2277 -119 c2 -11 15 -21 27 -23 13 -1 29 -13 37 -24 23 -36 -10
-38 -49 -3 -20 17 -40 28 -52 25 -10 -3 -30 1 -44 7 l-25 12 39 12 c55 16 61
16 67 -6z m-154 -17 c48 -10 37 -24 -19 -24 -47 0 -66 12 -37 23 18 8 21 8 56
1z m-65 -63 c-2 -2 -16 2 -30 9 -23 13 -24 15 -7 21 16 5 48 -19 37 -30z
m-107 16 c4 -8 17 -19 28 -25 18 -10 17 -11 -12 -12 -17 0 -35 5 -38 10 -4 6
-29 7 -63 4 -64 -8 -63 5 1 23 57 15 75 15 84 0z m222 -27 c12 -7 3 -9 -30
-10 -32 0 -51 5 -60 17 -13 15 -10 16 30 9 24 -4 51 -11 60 -16z m241 1 c0
-15 -16 -22 -35 -15 -13 5 -14 8 -3 15 18 12 38 11 38 0z m-620 -11 c0 -5 -6
-10 -14 -10 -7 0 -17 -15 -21 -32 -6 -32 -7 -32 -17 -10 -6 12 -20 22 -31 22
-26 0 -15 11 26 26 42 15 57 16 57 4z m-100 -69 c0 -11 -8 -27 -17 -37 -21
-21 -43 -62 -43 -80 0 -8 -4 -14 -10 -14 -17 0 -11 34 14 70 13 19 26 45 30
58 9 27 26 29 26 3z m720 -2 c0 -5 -4 -9 -10 -9 -5 0 -10 7 -10 16 0 8 5 12
10 9 6 -3 10 -10 10 -16z m21 -32 c-8 -8 -11 -7 -11 4 0 20 13 34 18 19 3 -7
-1 -17 -7 -23z m-651 2 c0 -5 -4 -9 -10 -9 -5 0 -10 7 -10 16 0 8 5 12 10 9 6
-3 10 -10 10 -16z m640 -35 c0 -8 -8 -18 -17 -21 -10 -4 -24 -13 -31 -20 -16
-15 -68 -17 -77 -3 -3 6 -33 10 -65 10 -64 0 -90 7 -90 22 0 7 22 8 60 4 33
-3 87 -9 120 -12 58 -6 60 -6 70 20 10 27 30 27 30 0z m-694 5 c9 -16 -12 -33
-31 -25 -14 5 -15 9 -5 21 15 18 26 19 36 4z m-116 -91 c0 -7 -7 -26 -15 -42
-8 -15 -15 -36 -16 -45 0 -11 -2 -12 -6 -3 -4 10 -8 10 -19 1 -11 -9 -14 -8
-14 4 0 8 3 17 8 19 4 2 15 20 24 41 17 36 38 50 38 25z m543 -5 c8 -7 -38
-33 -59 -33 -17 0 -18 27 -1 33 18 8 53 8 60 0z m87 -28 c11 -13 8 -15 -18
-15 -31 0 -47 11 -35 24 11 11 40 6 53 -9z m400 5 c0 -5 -5 -10 -12 -10 -6 0
-31 -21 -54 -47 -24 -26 -46 -44 -50 -41 -3 4 3 17 15 29 12 13 21 26 21 30 0
8 60 49 73 49 4 0 7 -4 7 -10z m-327 -45 c42 -21 48 -35 15 -35 -50 0 -5 -11
68 -16 43 -3 84 -10 91 -16 18 -14 16 -38 -2 -38 -8 0 -15 6 -15 14 0 11 -12
15 -40 14 -35 0 -38 -2 -29 -19 13 -25 -4 -25 -28 -1 -10 10 -37 26 -61 37
-32 14 -41 22 -37 36 3 9 1 20 -5 24 -11 7 -14 29 -2 23 4 -2 24 -12 45 -23z
m-683 0 c0 -8 -4 -15 -10 -15 -5 0 -10 7 -10 15 0 8 5 15 10 15 6 0 10 -7 10
-15z m360 -14 c-26 -15 -90 -23 -123 -15 -28 6 -30 8 -12 15 28 11 154 11 135
0z m219 3 c17 -4 31 -11 31 -16 0 -6 -11 -7 -27 -3 -16 4 -44 11 -63 15 l-35
8 31 1 c17 0 46 -2 63 -5z m-655 -49 c8 -33 1 -44 -24 -38 -23 6 -25 16 -10
44 15 26 27 24 34 -6z m1256 -25 c-8 -5 -22 -10 -32 -10 -9 0 -18 -5 -20 -12
-3 -7 -16 -13 -29 -13 -30 -2 -51 -13 -44 -25 3 -5 1 -11 -5 -15 -5 -3 -10 1
-10 10 0 9 -4 14 -10 10 -5 -3 -7 -12 -4 -19 3 -8 -6 -25 -19 -40 -22 -23 -26
-24 -37 -11 -11 13 -11 20 0 40 7 14 18 25 24 25 6 0 22 9 36 20 14 11 34 20
46 20 11 0 29 7 40 15 10 8 33 14 49 15 23 0 26 -3 15 -10z m-645 -12 c50 -23
23 -43 -40 -30 -51 10 -63 42 -16 42 16 0 42 -5 56 -12z m-537 -32 c3 -20 0
-27 -10 -24 -7 3 -14 17 -16 32 -3 20 0 27 10 24 7 -3 14 -17 16 -32z m-128 7
c0 -22 -17 -50 -25 -42 -5 6 14 59 22 59 1 0 3 -8 3 -17z m417 1 c-3 -3 -12
-4 -19 -1 -8 3 -5 6 6 6 11 1 17 -2 13 -5z m46 -1 c-7 -2 -19 -2 -25 0 -7 3
-2 5 12 5 14 0 19 -2 13 -5z m497 -3 c0 -5 -7 -10 -16 -10 -8 0 -12 5 -9 10 3
6 10 10 16 10 5 0 9 -4 9 -10z m-196 -47 c3 -7 0 -13 -7 -13 -14 0 -47 35 -47
51 0 12 47 -21 54 -38z m-285 28 c11 -7 9 -10 -8 -16 -24 -7 -44 2 -36 16 8
11 26 11 44 0z m-439 -11 c0 -5 -4 -10 -10 -10 -5 0 -10 5 -10 10 0 6 5 10 10
10 6 0 10 -4 10 -10z m318 -9 c17 -1 32 -6 32 -12 0 -14 -77 -6 -93 10 -6 6
-3 8 9 6 11 -2 34 -4 52 -4z m252 -1 c0 -6 10 -14 23 -19 19 -7 -18 -8 -87 -2
-15 1 6 18 29 24 33 8 35 7 35 -3z m108 -12 c15 -15 16 -38 2 -38 -6 0 -22 7
-36 17 -19 12 -22 18 -12 24 18 12 32 11 46 -3z m-738 -26 c0 -19 -18 -42 -32
-42 -12 0 -9 35 4 48 17 17 28 15 28 -6z m489 5 c13 -16 5 -27 -21 -27 -18 0
-25 20 -11 33 10 10 19 8 32 -6z m-286 -22 c1 -5 -13 -11 -30 -13 -31 -3 -42
6 -26 22 10 10 53 3 56 -9z m899 -7 c14 -20 13 -26 -1 -54 -17 -33 -61 -72
-61 -54 0 6 11 22 25 36 28 28 33 54 10 54 -17 0 -18 2 -9 24 8 22 19 20 36
-6z m-779 2 c8 0 8 -3 0 -11 -6 -6 -25 -8 -49 -3 -36 7 -37 8 -14 15 14 4 31
5 38 3 8 -2 19 -4 25 -4z m513 -5 c3 -8 -1 -22 -10 -30 -14 -14 -18 -14 -41 1
-30 19 -34 40 -5 24 16 -9 22 -8 26 5 8 19 23 19 30 0z m-896 -60 c-18 -22
-45 -23 -69 -4 -20 16 -21 20 -7 25 9 3 23 1 31 -6 12 -10 16 -9 21 4 5 13 9
14 20 5 10 -8 11 -15 4 -24z m394 27 c3 -5 -31 -17 -76 -26 -45 -10 -92 -25
-105 -33 -34 -23 -40 -8 -8 21 16 15 44 27 68 30 23 3 53 7 67 10 45 6 49 6
54 -2z m116 -7 c0 -8 -9 -15 -19 -15 -24 0 -36 16 -19 23 24 10 38 7 38 -8z
m594 -9 c-6 -16 -44 -23 -44 -8 0 9 42 32 48 27 1 -1 0 -10 -4 -19z m-360 -5
c16 -17 16 -19 -6 -26 -13 -5 -36 -10 -53 -11 -16 -2 -42 -6 -57 -10 -24 -5
-28 -3 -28 16 0 20 3 22 43 16 44 -6 74 4 63 23 -12 19 20 12 38 -8z m-839
-10 c7 -12 -12 -24 -25 -16 -11 7 -4 25 10 25 5 0 11 -4 15 -9z m155 -1 c0 -5
-7 -10 -15 -10 -8 0 -15 5 -15 10 0 6 7 10 15 10 8 0 15 -4 15 -10z m913 4
c11 -11 -3 -24 -18 -18 -8 4 -12 10 -9 15 6 11 18 12 27 3z m-45 -16 c7 -7 12
-20 12 -30 0 -16 -3 -17 -20 -8 -11 6 -24 19 -30 30 -9 17 -8 20 8 20 10 0 23
-5 30 -12z m112 -17 c0 -11 9 -23 20 -26 29 -9 25 -22 -16 -41 -28 -13 -40
-14 -60 -6 -25 12 -33 42 -11 42 7 0 22 -7 34 -15 34 -24 39 2 7 36 l-28 29
27 0 c20 0 27 -5 27 -19z m-1194 -7 c-3 -9 -6 -20 -6 -25 0 -6 -17 -17 -37
-26 -21 -8 -46 -22 -55 -31 -14 -11 -18 -12 -18 -2 0 17 29 50 44 50 6 0 22
12 35 25 26 28 46 33 37 9z m297 4 c15 -7 27 -17 27 -21 0 -16 -30 -18 -45 -3
-9 9 -21 16 -26 16 -6 0 -7 5 -4 10 8 13 15 13 48 -2z m405 -33 c7 -6 -18 -8
-91 -5 -32 1 -64 -3 -71 -10 -11 -8 -16 -8 -21 1 -14 21 19 29 99 24 43 -2 81
-7 84 -10z m-248 -20 c0 -9 -6 -12 -15 -9 -8 4 -12 10 -9 15 8 14 24 10 24 -6z
m-400 -5 c0 -5 -4 -10 -10 -10 -5 0 -10 5 -10 10 0 6 5 10 10 10 6 0 10 -4 10
-10z m233 -9 c3 -12 -3 -27 -12 -35 -22 -20 -31 -20 -31 -1 0 8 5 15 12 15 9
0 9 3 0 12 -17 17 -15 28 7 28 10 0 21 -9 24 -19z m222 -11 c8 0 17 -5 20 -11
13 -19 -3 -21 -34 -3 -25 15 -28 20 -18 32 10 13 12 13 15 -1 2 -10 10 -17 17
-17z m258 13 c-7 -2 -21 -2 -30 0 -10 3 -4 5 12 5 17 0 24 -2 18 -5z m-160
-15 c3 -10 9 -10 26 0 29 17 33 15 29 -10 -4 -29 -43 -36 -69 -12 -10 9 -19
21 -19 26 0 13 28 9 33 -4z m377 2 c0 -5 -2 -10 -4 -10 -3 0 -8 5 -11 10 -3 6
-1 10 4 10 6 0 11 -4 11 -10z m-1086 -71 c-5 -8 -10 -6 -16 5 -7 13 -12 14
-31 3 -40 -22 -53 -59 -17 -50 24 6 26 -9 5 -27 -8 -7 -15 -19 -15 -27 0 -10
-6 -13 -17 -8 -10 4 -23 8 -30 9 -19 3 -28 16 -17 24 5 4 23 25 39 47 16 22
38 48 49 57 20 16 22 16 39 -3 10 -10 15 -24 11 -30z m1124 32 c3 -8 -1 -12
-9 -9 -7 2 -15 10 -17 17 -3 8 1 12 9 9 7 -2 15 -10 17 -17z m-1058 -11 c0
-21 -15 -27 -25 -10 -7 12 2 30 16 30 5 0 9 -9 9 -20z m384 14 c16 -6 23 -34
9 -34 -5 0 -19 9 -33 20 -19 15 -21 20 -8 20 9 0 23 -3 32 -6z m411 -4 c3 -6
-5 -10 -19 -10 -13 0 -31 -3 -40 -6 -9 -3 -16 -1 -16 4 0 18 65 29 75 12z
m-472 -28 c-2 -7 5 -12 15 -12 9 0 23 -13 30 -30 l14 -30 19 22 c17 22 18 22
18 3 0 -11 -6 -29 -14 -40 -15 -19 -15 -19 -31 3 -8 12 -20 22 -25 22 -16 0
-46 33 -54 58 -6 20 -4 23 12 20 10 -2 17 -10 16 -16z m268 -48 c77 -65 79
-68 73 -104 -12 -72 40 -130 117 -132 44 -1 69 -12 69 -29 0 -5 -33 -9 -74 -9
-59 0 -82 5 -122 26 -61 32 -80 49 -111 98 -35 55 -61 155 -54 209 2 18 28 3
102 -59z m1343 14 c-23 -177 -133 -288 -287 -288 -35 0 -67 3 -70 7 -16 15 18
33 65 33 44 0 54 4 85 35 33 33 35 39 30 82 -5 51 0 59 106 144 68 54 79 52
71 -13z m-1834 32 c0 -5 -7 -7 -15 -4 -8 4 -15 8 -15 10 0 2 7 4 15 4 8 0 15
-4 15 -10z m100 0 c0 -5 -4 -10 -10 -10 -5 0 -10 5 -10 10 0 6 5 10 10 10 6 0
10 -4 10 -10z m510 -5 c0 -9 9 -15 25 -15 18 0 25 -5 25 -20 0 -26 -14 -25
-51 1 -31 22 -39 49 -14 49 8 0 15 -7 15 -15z m258 7 c10 -7 10 -15 -1 -42
l-14 -33 -17 33 c-9 18 -16 37 -16 42 0 10 31 10 48 0z m120 -31 c12 -16 31
-31 43 -33 13 -2 24 -9 27 -17 3 -10 -5 -12 -39 -6 -64 11 -79 21 -79 55 0 39
20 39 48 1z m-403 -29 c-7 -8 -35 7 -35 18 0 6 7 6 20 -2 10 -7 17 -14 15 -16z
m-445 4 c0 -8 -4 -17 -9 -21 -12 -7 -24 12 -16 25 9 15 25 12 25 -4z m-222
-26 c35 0 62 -4 62 -10 0 -14 -133 -13 -148 2 -9 9 -12 7 -12 -10 0 -13 -6
-22 -15 -22 -19 0 -19 0 1 39 15 30 17 31 33 17 12 -11 37 -16 79 -16z m882
-19 c0 -31 -6 -55 -15 -65 -23 -22 -19 -49 5 -43 23 6 24 3 8 -22 -16 -26 -3
-55 22 -48 13 3 20 0 20 -10 0 -8 4 -12 9 -9 12 8 34 -21 26 -34 -11 -17 -23
-11 -69 34 -32 31 -43 49 -40 63 4 13 0 23 -12 27 -15 6 -15 8 -1 24 8 9 18
43 22 75 9 70 25 75 25 8z m-731 25 c9 -11 6 -18 -15 -35 -32 -25 -44 -27 -44
-6 0 8 7 15 15 15 8 0 15 5 15 10 0 6 -7 10 -15 10 -8 0 -15 5 -15 10 0 15 46
12 59 -4z m151 -38 c0 -10 -4 -18 -8 -18 -16 0 -32 24 -32 49 0 23 1 24 20 6
11 -10 20 -26 20 -37z m120 -1 c0 -12 9 -28 20 -34 24 -16 50 -60 27 -46 -8 4
-31 23 -51 41 -31 28 -35 36 -26 53 13 24 30 16 30 -14z m308 13 c26 -24 32
-71 7 -50 -8 7 -15 18 -15 25 0 7 -9 15 -20 18 -11 3 -20 10 -20 16 0 18 24
13 48 -9z m239 -36 c-2 -13 2 -32 9 -41 13 -17 14 -16 20 5 6 22 8 22 28 -15
19 -33 20 -39 7 -44 -27 -10 -45 1 -69 41 -21 38 -29 90 -15 104 11 11 25 -24
20 -50z m290 34 c18 -7 33 -18 33 -25 0 -17 -10 -16 -34 2 -11 8 -32 15 -47
15 -15 0 -31 5 -34 10 -9 14 41 13 82 -2z m-437 -20 c-1 -16 -37 -64 -43 -58
-8 8 21 70 33 70 5 0 10 -6 10 -12z m-569 -8 c5 0 9 -7 9 -16 0 -13 -3 -14
-14 -5 -11 9 -16 9 -22 0 -4 -7 0 -17 9 -24 18 -13 23 -60 8 -69 -11 -7 -23
22 -15 36 4 6 -1 17 -10 23 -22 16 -12 69 11 61 8 -3 19 -6 24 -6z m916 4 c-3
-3 -12 -4 -19 -1 -8 3 -5 6 6 6 11 1 17 -2 13 -5z m-840 -25 c-4 -16 2 -25 28
-40 57 -34 55 -68 -3 -48 -21 7 -31 18 -36 40 -4 21 -11 29 -28 30 -15 0 -18
3 -8 6 8 3 19 12 23 19 12 22 30 16 24 -7z m823 -31 c7 -18 14 -51 15 -72 1
-44 19 -58 40 -30 10 15 16 16 25 7 9 -8 4 -15 -21 -26 -49 -21 -96 -21 -125
2 -28 22 -13 34 23 18 16 -7 26 -6 38 6 13 14 14 22 3 56 -7 23 -19 41 -25 41
-7 0 -13 7 -13 15 0 27 25 16 40 -17z m140 -5 c0 -5 -5 -15 -10 -23 -8 -12
-10 -11 -10 8 0 12 5 22 10 22 6 0 10 -3 10 -7z m-470 -34 c0 -5 -4 -9 -10 -9
-5 0 -10 7 -10 16 0 8 5 12 10 9 6 -3 10 -10 10 -16z m420 5 c0 -8 -4 -12 -10
-9 -5 3 -10 10 -10 16 0 5 5 9 10 9 6 0 10 -7 10 -16z m-1033 -16 c-3 -8 -6
-5 -6 6 -1 11 2 17 5 13 3 -3 4 -12 1 -19z m205 -41 c-12 -6 -22 -16 -22 -24
0 -7 -7 -13 -15 -13 -8 0 -15 7 -15 15 0 8 6 15 14 15 7 0 19 7 26 15 7 8 17
12 23 8 6 -4 2 -10 -11 -16z m-199 -164 c3 -104 2 -173 -4 -173 -5 0 -9 75 -9
177 0 97 2 174 4 172 2 -2 6 -82 9 -176z m257 131 c0 -8 -6 -14 -13 -14 -7 0
-13 8 -13 19 0 11 5 17 13 14 7 -3 13 -11 13 -19z m570 -24 c9 -16 8 -20 -5
-20 -8 0 -15 9 -15 20 0 11 2 20 5 20 2 0 9 -9 15 -20z m-515 -20 c3 -5 -1
-10 -9 -10 -8 0 -18 5 -21 10 -3 6 1 10 9 10 8 0 18 -4 21 -10z m452 -22 c-3
-8 -6 -5 -6 6 -1 11 2 17 5 13 3 -3 4 -12 1 -19z m-529 -11 c2 -10 -3 -17 -12
-17 -10 0 -16 9 -16 21 0 24 23 21 28 -4z m129 7 c2 -6 -6 -14 -18 -17 -20 -5
-21 -8 -8 -23 13 -16 11 -17 -20 -11 -40 8 -52 18 -32 25 7 2 21 13 30 23 17
19 42 21 48 3z m543 -48 c0 -2 -18 -3 -40 -3 -40 0 -51 12 -28 35 8 8 18 6 40
-9 15 -11 28 -22 28 -23z m-465 24 c3 -5 -3 -10 -14 -10 -11 0 -23 5 -26 10
-3 6 3 10 14 10 11 0 23 -4 26 -10z m-53 -22 c-9 -9 -15 -9 -24 0 -9 9 -7 12
12 12 19 0 21 -3 12 -12z m402 -13 c3 -10 -1 -18 -12 -22 -9 -4 -20 -11 -24
-17 -10 -15 -22 0 -12 16 5 7 9 16 10 21 1 4 2 9 3 12 3 12 29 4 35 -10z
m-534 -4 c0 -5 -7 -11 -15 -15 -15 -5 -20 5 -8 17 9 10 23 9 23 -2z m717 -11
c3 -11 12 -20 19 -20 8 0 14 -5 14 -10 0 -7 -7 -7 -21 1 -21 11 -22 10 -16
-25 3 -19 1 -38 -4 -41 -9 -6 -13 19 -10 61 1 12 -5 24 -13 27 -23 9 -19 27 5
27 12 0 23 -8 26 -20z m-258 -12 c0 -13 2 -33 6 -45 4 -13 3 -23 -3 -23 -10 0
-24 68 -16 82 9 14 14 9 13 -14z m-94 2 c-3 -5 -11 -10 -16 -10 -6 0 -7 5 -4
10 3 6 11 10 16 10 6 0 7 -4 4 -10z m50 -9 c3 -5 1 -12 -5 -16 -5 -3 -10 1
-10 9 0 18 6 21 15 7z m-117 -8 c-16 -2 -40 -2 -55 0 -16 2 -3 4 27 4 30 0 43
-2 28 -4z m228 -111 c-4 -60 -13 -92 -26 -92 -4 0 -10 -10 -13 -22 -4 -12 -9
-20 -12 -16 -3 3 -2 16 3 29 15 37 32 117 32 145 0 14 4 23 10 19 5 -3 8 -31
6 -63z m-82 22 c4 -14 3 -31 -2 -37 -6 -7 -12 -21 -14 -32 -2 -11 -4 6 -4 38
0 60 9 74 20 31z m341 -12 c-8 -9 -25 20 -18 31 3 5 10 2 15 -7 6 -10 7 -20 3
-24z m-45 -18 c0 -8 -4 -14 -10 -14 -5 0 -10 9 -10 21 0 11 5 17 10 14 6 -3
10 -13 10 -21z m69 -46 c0 -18 -3 -27 -6 -20 -4 10 -9 10 -23 -3 -16 -15 -18
-14 -24 10 -8 33 -1 45 30 45 21 0 24 -4 23 -32z m-399 -40 c0 -17 -17 -34
-26 -26 -2 3 -7 19 -10 37 -7 32 -6 32 15 20 11 -8 21 -21 21 -31z m-639 -48
c5 0 9 -4 9 -10 0 -5 -7 -10 -15 -10 -10 0 -15 9 -14 28 1 16 3 20 6 10 2 -10
9 -18 14 -18z m741 -37 c-16 -26 -32 -30 -32 -8 0 8 5 15 10 15 6 0 10 8 10
18 0 27 13 36 21 15 3 -10 -1 -28 -9 -40z m175 15 c-3 -7 -5 -2 -5 12 0 14 2
19 5 13 2 -7 2 -19 0 -25z m-222 -11 c-5 -24 -1 -39 13 -57 24 -31 34 -60 22
-60 -5 0 -17 14 -25 31 -17 32 -38 34 -44 4 -2 -10 -14 -27 -27 -38 -18 -14
-23 -25 -18 -41 6 -19 5 -20 -11 -5 -15 15 -14 20 24 74 22 31 45 72 51 91 15
43 23 44 15 1z m-85 14 c0 -12 -31 -43 -37 -37 -6 6 20 46 29 46 5 0 8 -4 8
-9z m-544 -20 c19 -11 32 -21 27 -24 -12 -6 -73 21 -73 33 0 14 5 13 46 -9z
m154 -1 c0 -5 -7 -10 -15 -10 -8 0 -15 5 -15 10 0 6 7 10 15 10 8 0 15 -4 15
-10z m793 4 c8 -8 -11 -44 -22 -44 -12 0 -23 29 -15 41 6 10 28 12 37 3z
m-853 -20 c0 -10 -28 -34 -39 -34 -16 0 -13 11 7 26 18 14 32 18 32 8z m393 0
c6 -6 -35 -44 -47 -44 -4 0 1 11 10 25 17 25 26 30 37 19z m-73 -14 c0 -5 -4
-10 -10 -10 -5 0 -10 5 -10 10 0 6 5 10 10 10 6 0 10 -4 10 -10z m-16 -36 c3
-8 10 -13 15 -10 5 3 11 -4 15 -17 6 -22 6 -22 32 6 14 16 29 26 32 22 3 -3
-10 -21 -28 -40 -34 -33 -36 -34 -57 -17 -23 18 -42 72 -25 72 5 0 13 -7 16
-16z m490 -33 c-10 -17 -22 -31 -26 -31 -11 0 3 64 16 72 22 14 28 -11 10 -41z
m-794 29 c0 -5 -4 -10 -10 -10 -5 0 -10 5 -10 10 0 6 5 10 10 10 6 0 10 -4 10
-10z m130 2 c0 -5 -9 -17 -19 -26 -14 -13 -21 -14 -27 -5 -4 7 1 18 11 26 21
15 35 17 35 5z m-76 -33 c13 -6 27 -23 31 -36 4 -19 11 -24 25 -20 16 4 20 0
20 -18 0 -27 -21 -46 -28 -25 -3 7 -22 32 -43 55 -51 55 -52 65 -5 44z m496
-39 c0 -5 -4 -10 -10 -10 -5 0 -10 5 -10 10 0 6 5 10 10 10 6 0 10 -4 10 -10z
m-126 -44 c6 -25 5 -28 -8 -17 -11 9 -20 10 -35 1 -17 -9 -21 -8 -21 4 0 12
51 50 56 43 1 -1 4 -15 8 -31z m-124 -31 c0 -8 -4 -15 -10 -15 -5 0 -10 7 -10
15 0 8 5 15 10 15 6 0 10 -7 10 -15z m-160 -15 c0 -5 -4 -10 -10 -10 -5 0 -10
5 -10 10 0 6 5 10 10 10 6 0 10 -4 10 -10z m710 -10 c0 -5 -16 -10 -35 -10
-19 0 -35 5 -35 10 0 6 16 10 35 10 19 0 35 -4 35 -10z m168 -7 c-21 -2 -57
-2 -80 0 -24 2 -7 4 37 4 44 0 63 -2 43 -4z m120 0 c-10 -2 -26 -2 -35 0 -10
3 -2 5 17 5 19 0 27 -2 18 -5z m-783 -13 c3 -6 -5 -10 -19 -10 -14 0 -28 -4
-31 -10 -3 -5 -15 -10 -26 -10 -10 0 -19 5 -19 10 0 6 9 10 21 10 11 0 17 5
14 10 -4 6 6 10 24 10 16 0 33 -4 36 -10z m-195 -11 c0 -13 25 -39 38 -39 6 0
12 5 14 11 2 6 13 9 23 7 16 -3 11 -9 -23 -27 -24 -12 -45 -21 -47 -19 -22 27
-32 78 -15 78 6 0 10 -5 10 -11z m1073 4 c-7 -2 -19 -2 -25 0 -7 3 -2 5 12 5
14 0 19 -2 13 -5z m-469 -19 c37 -14 11 -24 -61 -24 -85 0 -90 11 -10 21 29 3
53 7 54 8 1 0 8 -2 17 -5z m126 -4 c0 -5 -11 -10 -25 -10 -14 0 -25 5 -25 10
0 6 11 10 25 10 14 0 25 -4 25 -10z m205 0 c4 -6 -5 -10 -20 -10 -15 0 -24 4
-20 10 3 6 12 10 20 10 8 0 17 -4 20 -10z m262 -16 c-3 -3 -12 -4 -19 -1 -8 3
-5 6 6 6 11 1 17 -2 13 -5z m-904 -28 c28 -9 19 -26 -14 -26 -24 0 -30 4 -25
15 6 17 -29 22 -39 5 -7 -11 -85 -34 -92 -27 -13 14 116 57 137 46 8 -4 23
-10 33 -13z m804 -2 c-3 -3 -12 -4 -19 -1 -8 3 -5 6 6 6 11 1 17 -2 13 -5z
m163 -4 c0 -5 -2 -10 -4 -10 -3 0 -8 5 -11 10 -3 6 -1 10 4 10 6 0 11 -4 11
-10z m-105 -20 c8 -13 -5 -13 -25 0 -13 8 -13 10 2 10 9 0 20 -4 23 -10z
m-1045 -20 c0 -5 -6 -10 -13 -10 -20 0 -48 -35 -42 -52 3 -8 -6 -24 -20 -36
-31 -27 -35 -27 -35 -2 0 11 7 20 15 20 8 0 15 5 15 10 0 6 -5 10 -11 10 -17
0 -35 -23 -44 -55 l-9 -30 -4 27 c-5 37 6 53 64 93 49 34 84 44 84 25z m130
-5 c11 -13 29 -14 103 -9 70 6 88 4 83 -5 -5 -7 -15 -10 -24 -6 -8 3 -29 1
-46 -4 -17 -5 -59 -12 -92 -15 -57 -5 -62 -4 -68 16 -8 34 22 49 44 23z m973
-1 c50 -25 76 -54 83 -92 7 -35 -12 -112 -28 -112 -11 0 -10 11 7 40 25 44 18
72 -28 115 -24 22 -52 45 -63 52 -29 18 -8 15 29 -3z m-1063 -34 c0 -5 10 -18
22 -30 14 -13 17 -20 8 -20 -7 0 -22 7 -32 17 -19 17 -24 43 -8 43 6 0 10 -4
10 -10z m367 -24 c4 -3 -15 -6 -40 -6 -43 0 -56 7 -41 22 6 6 72 -7 81 -16z
m88 -53 c14 -32 14 -45 4 -81 -12 -45 -43 -72 -61 -54 -7 7 -3 15 11 24 18 11
21 22 21 80 0 38 2 68 5 68 3 0 12 -17 20 -37z m-410 3 c35 -15 47 -36 21 -36
-18 0 -76 32 -76 43 0 11 17 9 55 -7z m85 -1 c0 -8 -7 -15 -15 -15 -8 0 -15 7
-15 15 0 8 7 15 15 15 8 0 15 -7 15 -15z m-170 -20 c0 -8 7 -15 15 -15 20 0
19 -16 -2 -24 -9 -4 -20 -1 -24 6 -5 7 -22 11 -39 10 -17 -2 -30 1 -30 7 0 6
11 11 24 11 14 0 28 5 31 10 9 15 25 12 25 -5z m990 -5 c0 -5 -9 -10 -20 -10
-11 0 -20 5 -20 10 0 6 9 10 20 10 11 0 20 -4 20 -10z m61 -17 c50 -63 50 -95
-1 -42 -22 23 -37 46 -34 50 8 14 20 11 35 -8z m-881 -23 c0 -10 6 -20 13 -23
6 -2 9 -7 6 -11 -3 -3 -18 6 -33 21 -19 19 -23 29 -14 34 16 10 28 2 28 -21z
m741 10 c-13 -11 -28 -20 -35 -20 -6 0 0 9 14 20 33 26 52 25 21 0z m-1021 -5
c0 -7 6 -18 13 -22 8 -4 20 -21 29 -38 8 -16 22 -45 31 -62 11 -22 12 -35 5
-39 -12 -8 -36 21 -62 74 -10 21 -22 45 -27 54 -12 24 -11 48 1 48 6 0 10 -7
10 -15z m80 -40 c0 -8 -4 -15 -10 -15 -5 0 -10 7 -10 15 0 8 5 15 10 15 6 0
10 -7 10 -15z m893 1 c-10 -19 -99 -96 -109 -96 -5 0 16 25 46 55 52 53 80 71
63 41z m-633 -22 c0 -17 -22 -14 -28 4 -2 7 3 12 12 12 9 0 16 -7 16 -16z m90
6 c0 -5 -7 -10 -15 -10 -8 0 -15 5 -15 10 0 6 7 10 15 10 8 0 15 -4 15 -10z
m62 -18 c-27 -4 -37 2 -27 17 4 8 13 7 28 -1 l22 -13 -23 -3z m768 12 c0 -8
-4 -12 -10 -9 -5 3 -10 10 -10 16 0 5 5 9 10 9 6 0 10 -7 10 -16z m-20 -41 c0
-7 -7 -10 -15 -7 -11 5 -15 -1 -15 -20 0 -17 -5 -26 -16 -26 -10 0 -14 -7 -12
-22 2 -14 -2 -22 -9 -20 -7 1 -13 -4 -13 -12 0 -10 -7 -12 -22 -8 -18 4 -20 2
-16 -16 6 -21 -7 -32 -14 -13 -1 4 -13 12 -25 15 -27 9 -31 -9 -6 -23 23 -12
13 -22 -15 -14 -12 3 -22 13 -23 22 0 10 -2 11 -6 4 -6 -15 -43 -17 -43 -3 0
6 5 10 10 10 12 0 -9 41 -27 53 -7 4 -13 14 -13 21 0 7 17 -2 37 -21 33 -32
40 -34 77 -29 56 9 86 33 120 95 21 39 31 50 37 40 5 -8 9 -19 9 -26z m-880
11 c0 -8 -5 -12 -10 -9 -6 4 -8 11 -5 16 9 14 15 11 15 -7z m85 -59 c28 -23
29 -24 8 -25 -22 0 -63 27 -63 42 0 15 25 8 55 -17z m-97 -38 c4 -21 -70 -63
-127 -72 -29 -5 -41 -4 -37 3 3 6 2 13 -4 17 -17 11 -11 25 11 25 16 0 20 -5
16 -20 -6 -24 8 -27 17 -4 4 10 14 14 26 11 21 -5 29 8 9 15 -7 2 -5 9 5 17
14 11 16 11 16 -3 0 -9 5 -16 10 -16 6 0 10 9 10 20 0 11 -5 20 -11 20 -8 0
-7 5 1 15 11 13 16 14 34 2 12 -8 22 -21 24 -30z m493 22 c-14 -11 -38 -23
-53 -26 -16 -3 -31 -10 -34 -14 -10 -16 -208 -11 -245 6 -26 12 -28 15 -9 11
124 -23 269 -12 303 24 10 11 28 20 40 20 22 -1 22 -1 -2 -21z m107 -13 c-2
-8 6 -22 17 -30 20 -15 20 -15 -2 -16 -12 0 -27 9 -33 19 -14 28 -13 41 5 41
9 0 15 -6 13 -14z m-803 -34 c0 -6 3 -14 8 -18 11 -12 8 -24 -7 -24 -18 0 -33
19 -42 55 -7 30 -7 30 17 14 13 -9 24 -21 24 -27z m785 -87 c13 -14 20 -28 17
-32 -12 -11 -53 17 -53 38 0 25 8 24 36 -6z m-543 -7 c24 -22 31 -62 13 -73
-18 -11 -32 5 -19 21 10 12 8 19 -10 37 -36 40 -23 52 16 15z m-43 -24 c3 -9
6 -24 6 -35 0 -11 7 -22 15 -25 8 -4 15 -18 15 -33 l-1 -26 -19 24 c-11 13
-20 31 -20 42 0 10 -4 21 -10 24 -12 8 -13 45 -1 45 5 0 12 -7 15 -16z m526
-9 c0 -8 -7 -15 -15 -15 -26 0 -18 20 13 29 1 1 2 -6 2 -14z m-397 -32 c9 -8
-25 -33 -36 -26 -4 3 -3 11 4 19 13 15 22 18 32 7z m397 -22 c-9 -18 -8 -23
11 -30 15 -5 18 -10 11 -15 -6 -4 -21 -2 -32 4 -25 13 -27 57 -2 62 24 6 25 3
12 -21z m50 0 c0 -6 -4 -13 -10 -16 -5 -3 -10 1 -10 9 0 9 5 16 10 16 6 0 10
-4 10 -9z m-395 -59 c-11 -2 -32 -8 -47 -13 -19 -8 -32 -7 -50 3 -22 12 -22
13 17 18 30 4 40 9 39 22 -2 16 2 15 30 -5 27 -19 28 -22 11 -25z m-68 -57 c3
-9 3 -19 -1 -22 -8 -9 -37 18 -30 28 8 14 24 11 31 -6z m118 6 c-5 -10 -63
-41 -74 -41 -3 0 7 11 23 25 28 24 63 35 51 16z m-85 -51 c0 -5 -2 -10 -4 -10
-3 0 -8 5 -11 10 -3 6 -1 10 4 10 6 0 11 -4 11 -10z m305 0 c-3 -5 -11 -10
-16 -10 -6 0 -7 5 -4 10 3 6 11 10 16 10 6 0 7 -4 4 -10z"/>
<path d="M1117 2604 c-14 -14 -7 -35 11 -32 9 2 17 10 17 17 0 16 -18 25 -28
15z"/>
</g>
</svg>
